<svg width="18" height="18" viewBox="0 0 18 18" fill="none" xmlns="http://www.w3.org/2000/svg">
<path d="M9 0C4.02966 0 0 4.02966 0 9C0 13.9703 4.02966 18 9 18C13.9703 18 18 13.9703 18 9C18 4.02966 13.9703 0 9 0ZM8.23111 5.26024L12.086 8.46779C12.1641 8.53276 12.2269 8.61412 12.27 8.70609C12.3131 8.79807 12.3355 8.89841 12.3355 9C12.3355 9.10159 12.3131 9.20193 12.27 9.29391C12.2269 9.38588 12.1641 9.46724 12.086 9.53221L8.23111 12.7398C8.13001 12.8238 8.00707 12.8774 7.87667 12.8941C7.74626 12.9109 7.61378 12.8901 7.49473 12.8344C7.37567 12.7786 7.27496 12.69 7.20438 12.5791C7.13379 12.4682 7.09626 12.3395 7.09615 12.208V5.79202C7.09626 5.66054 7.13379 5.53181 7.20438 5.42089C7.27496 5.30996 7.37567 5.22143 7.49473 5.16565C7.61378 5.10986 7.74626 5.08913 7.87667 5.10589C8.00707 5.12264 8.13001 5.17618 8.23111 5.26024Z" fill="#C4C4C4"/>
</svg>
