<svg width="14" height="14" viewBox="0 0 14 14" fill="none" xmlns="http://www.w3.org/2000/svg">
<path d="M7 0C3.136 0 0 3.136 0 7C0 10.864 3.136 14 7 14C10.864 14 14 10.864 14 7C14 3.136 10.864 0 7 0ZM7 12.6C3.906 12.6 1.4 10.094 1.4 7C1.4 3.906 3.906 1.4 7 1.4C10.094 1.4 12.6 3.906 12.6 7C12.6 10.094 10.094 12.6 7 12.6Z" fill="#C4C4C4"/>
<path d="M7.0004 12.6703C10.1318 12.6703 12.6703 10.1318 12.6703 7.0004C12.6703 3.86897 10.1318 1.33044 7.0004 1.33044C3.86897 1.33044 1.33044 3.86897 1.33044 7.0004C1.33044 10.1318 3.86897 12.6703 7.0004 12.6703Z" fill="#F1F1F1"/>
</svg>
